<svg xmlns="http://www.w3.org/2000/svg" viewBox="0 0 444.79 193.95"><defs><style>.cls-1,.cls-2{fill:#1d1d1b;}.cls-2{font-size:100px;font-family:Maple-Light, Maple Light;font-weight:300;}.cls-3{letter-spacing:0.02em;}</style></defs><g id="le_cnam" data-name="le cnam"><path class="cls-1" d="M58,23.92h.12c5.46,0,10.08,1.94,13.18,5.4A20.18,20.18,0,0,1,76.4,42.88h0v0h0a36.26,36.26,0,0,1-.59,7.76l-.13.5H35.27l0-.72.15-1.82C36,42,39,36.21,42.54,31.61A19.19,19.19,0,0,1,58,23.92M29.22,53.61c0,10.79,3.09,18.73,8.27,24s12.65,8.14,22,8.15h0c6.15,0,11.18-1.29,15.13-3.87a15.62,15.62,0,0,0,6.94-10.11l-4.36-1.39a15.86,15.86,0,0,1-4.64,8.83c-3,2.72-7.19,3.89-12.3,3.9H60.2a22,22,0,0,1-17-7.5c-4.13-4.75-7.74-11.48-7.74-19.45V53.85H81.08a45.07,45.07,0,0,0,.71-8c0-8.07-2.24-14-6.16-18S65.86,21.58,58,21.57c-16.87.12-28.57,12-28.73,32" transform="translate(-4.27 -4.41)"/><rect class="cls-1" width="4.83" height="80.62"/><path class="cls-1" d="M149.53,21.43c-19.66.11-29.8,13-30,32.21.12,19.15,11.41,32.26,31,32.35,14.49-.14,21.23-5.66,24.13-16.35-2.12-.69-3.78-1.18-6.05-1.88-2.15,7.86-7.79,13.57-17.41,13.57h-.3a21.14,21.14,0,0,1-16.95-8.2c-4-5-6.17-11.92-6.17-19.49s1.7-14.24,5.27-19.3a19.07,19.07,0,0,1,16.15-8.26h.14c8.47,0,14.68,5.46,17.09,13.18,2.25-.7,4.25-1.42,6.74-2.22-2.21-9.7-10.41-15.53-23.63-15.61" transform="translate(-4.27 -4.41)"/><path class="cls-1" d="M224.61,21.34c-13.36.08-19.74,5-23.05,18.46l-1.49-.06-2.81-17.07h-6.44V85.1h11.71V66.46c0-18.94,6.69-34.74,19.19-34.87h0c3.85,0,7.12,1.24,9.37,3.82s3.45,6.38,3.45,11.38V85.1h11.69V45.83c-.08-15.19-7.22-24.43-21.66-24.49" transform="translate(-4.27 -4.41)"/><path class="cls-1" d="M422.9,21.42c-9.59,0-16.54,7.77-20.74,18.18-3.84-12.69-13.57-18.18-21.84-18.18-10.66,0-18.31,6.85-22.54,18h-1.59l-3.34-16.78H339.38V85.11h22.15V69.55c0-6.46.24-27.55,11.31-27.55,1.53,0,5.77,0,5.77,8.73V85.11h25.5V69.55c0-13.27,3.1-27.55,11.3-27.55,1.53,0,5.77,0,5.77,8.73V85.11h25.29V50.73c0-24.22-12.82-29.31-23.57-29.31" transform="translate(-4.27 -4.41)"/><path class="cls-1" d="M292.05,21.47c-18,0-28.36,6.85-28.36,18.78a24.84,24.84,0,0,0,.65,5.47c.06.21.18.74.34,1.24s.33.94.38,1.07l17-3.8a8,8,0,0,1-.32-1.24,14.69,14.69,0,0,1-.18-1.93c0-4.89,3.62-7.81,9.69-7.81,6.62,0,10,4.49,10,13.34v7.15l-.58-.06a108.86,108.86,0,0,0-12.76-.81c-16.46,0-25.52,6-25.52,16.8,0,10.24,7.17,16.35,19.17,16.35,12.4,0,17.81-7,20.17-12.9l1,.15c.68,8.61,5.71,12.61,15.81,12.61,4.45,0,7.81-1.11,10.55-3.49V75.23a9.75,9.75,0,0,1-2.73.36c-4,0-5.91-2.2-5.91-6.73V48.75c0-18.35-9.27-27.28-28.35-27.28M288.4,76.13c-4.64,0-7.41-2.42-7.41-6.46,0-5.72,3.34-9.75,19.66-10.82l.55,0v2.63c0,8.92-5,14.69-12.8,14.69" transform="translate(-4.27 -4.41)"/></g><g id="Enjmin"><text class="cls-2" transform="translate(147.75 168.7) scale(1.01)"><tspan class="cls-3">e</tspan><tspan x="52" y="0">njmin</tspan></text></g></svg>